<?xml version="1.0" standalone="no"?>
<!DOCTYPE svg PUBLIC "-//W3C//DTD SVG 20010904//EN"
 "http://www.w3.org/TR/2001/REC-SVG-20010904/DTD/svg10.dtd">
<svg version="1.0" xmlns="http://www.w3.org/2000/svg"
 width="540.000000pt" height="306.000000pt" viewBox="0 0 540.000000 306.000000"
 preserveAspectRatio="xMidYMid meet">
<metadata>
Created by potrace 1.10, written by Peter Selinger 2001-2011
</metadata>
<g transform="translate(0.000000,306.000000) scale(0.100000,-0.100000)"
fill="#f0f000" stroke="none">
<path d="M2610 2740 c-82 -12 -191 -44 -218 -64 -7 -5 -33 -19 -57 -30 -51
-25 -153 -118 -190 -175 -18 -26 -37 -42 -56 -46 -25 -6 -29 -11 -29 -41 0
-19 -4 -42 -9 -52 -35 -66 -51 -106 -51 -130 0 -16 -5 -33 -10 -38 -16 -16
-23 -207 -11 -294 15 -115 28 -163 55 -213 15 -25 26 -57 26 -72 0 -17 9 -31
30 -43 16 -10 44 -38 61 -61 53 -74 150 -151 250 -199 36 -18 73 -32 83 -32 9
0 31 -7 49 -16 46 -24 305 -24 361 0 21 9 46 16 55 16 22 0 192 88 211 109 3
4 26 23 51 43 49 39 67 75 43 85 -8 3 -76 -32 -151 -76 -179 -106 -242 -126
-393 -125 -90 0 -128 5 -175 21 -91 32 -146 59 -190 93 -22 16 -54 39 -70 50
-17 11 -41 33 -53 50 -14 18 -32 30 -46 30 -49 0 -66 56 -36 116 23 43 21 79
-3 72 -6 -3 -13 -25 -15 -51 l-3 -47 -24 16 c-30 20 -51 60 -60 116 -4 23 -14
53 -22 65 -13 19 -15 52 -11 178 2 102 8 159 16 167 7 7 12 24 12 38 0 30 32
95 65 130 13 14 27 37 30 53 8 29 39 57 64 57 9 0 27 11 41 25 66 65 102 95
114 95 8 0 20 7 27 16 17 21 96 57 174 79 42 12 92 17 168 16 155 -1 256 -30
367 -106 137 -92 180 -109 180 -69 0 22 -108 121 -160 146 -25 12 -52 27 -60
33 -8 6 -42 20 -75 29 -33 10 -70 22 -82 27 -33 12 -211 18 -273 9z"/>
<path d="M3785 2740 c-93 -15 -174 -43 -251 -86 -57 -32 -171 -130 -179 -154
-3 -8 -20 -25 -39 -38 -41 -28 -97 -132 -138 -257 -26 -80 -29 -104 -29 -215
-1 -166 31 -290 108 -415 45 -73 199 -226 260 -257 24 -13 63 -33 86 -45 23
-12 49 -22 58 -22 9 -1 34 -9 55 -18 57 -24 325 -25 371 0 18 9 41 17 53 17
55 0 292 159 338 227 14 21 33 46 42 55 8 9 26 39 39 65 14 26 30 55 37 63 6
8 14 26 17 40 3 14 16 59 28 100 31 104 31 256 0 360 -12 41 -25 86 -28 100
-3 14 -11 32 -17 40 -7 8 -22 35 -33 60 -12 25 -43 70 -68 100 -49 58 -165
169 -177 170 -4 0 -29 13 -55 28 -26 15 -75 36 -108 46 -33 10 -70 22 -83 27
-33 13 -229 19 -287 9z m303 -110 c95 -30 164 -66 232 -120 101 -80 176 -196
224 -342 33 -101 36 -276 7 -359 -29 -83 -54 -143 -63 -150 -5 -3 -18 -23 -29
-44 -63 -117 -224 -242 -359 -279 -30 -8 -72 -20 -93 -26 -74 -22 -244 -1
-347 42 -63 26 -169 93 -187 119 -7 9 -35 26 -63 38 -44 19 -50 25 -50 51 0
16 4 40 10 54 12 32 -6 46 -25 20 -11 -16 -15 -17 -30 -4 -30 25 -65 89 -76
138 -5 26 -15 70 -21 97 -14 68 -5 247 17 320 21 70 73 155 95 155 9 0 22 -6
29 -12 10 -11 11 -2 6 44 -7 55 -6 58 18 67 14 6 64 39 112 75 95 72 216 125
298 131 27 2 52 7 56 11 11 12 175 -6 239 -26z"/>
<path d="M3692 2349 c-33 -4 -53 -15 -85 -47 l-42 -42 -3 -266 c-2 -147 -1
-282 3 -301 8 -43 66 -109 110 -123 46 -15 104 -3 139 29 35 32 65 95 66 136
0 47 25 73 85 90 60 18 105 54 130 103 15 31 15 37 -1 89 -15 47 -16 60 -5 87
37 89 40 104 30 139 -12 45 -79 107 -117 108 -163 4 -275 3 -310 -2z m363
-140 l0 -64 -130 0 -130 0 0 -55 0 -55 120 0 120 0 3 -59 c2 -32 -1 -62 -5
-67 -4 -4 -55 -4 -113 0 -60 4 -109 4 -115 -1 -6 -5 -9 -60 -6 -139 l3 -130
-82 3 -82 3 -1 313 c-1 171 1 313 6 315 4 1 98 2 210 1 l202 0 0 -65z"/>
<path d="M3380 2286 c0 -8 5 -18 10 -21 6 -3 10 3 10 14 0 12 -4 21 -10 21 -5
0 -10 -6 -10 -14z"/>
<path d="M3440 2075 c0 -8 5 -15 10 -15 6 0 10 7 10 15 0 8 -4 15 -10 15 -5 0
-10 -7 -10 -15z"/>
<path d="M1250 2711 c-47 -16 -101 -38 -120 -49 -19 -11 -53 -30 -75 -41 -39
-20 -69 -47 -117 -102 -13 -15 -40 -45 -60 -67 -110 -120 -177 -370 -151 -570
19 -141 72 -277 144 -364 76 -92 95 -111 153 -152 66 -47 200 -116 225 -116 9
0 34 -7 56 -15 55 -20 285 -20 340 0 22 8 48 15 58 15 30 0 156 68 231 123 98
72 160 167 110 167 -17 0 -104 -59 -104 -70 0 -7 -75 -57 -140 -93 -88 -49
-106 -57 -126 -57 -13 0 -35 -5 -49 -10 -15 -6 -79 -11 -143 -11 -134 -1 -197
13 -311 67 -180 87 -276 203 -342 414 -29 95 -31 109 -27 218 5 137 23 203 90
337 34 69 189 224 248 249 158 67 302 96 410 81 77 -10 233 -64 284 -98 27
-17 56 -36 65 -42 9 -5 38 -31 64 -57 31 -31 58 -48 73 -48 76 0 -44 148 -186
227 -30 17 -95 45 -144 62 -84 29 -98 31 -230 30 -126 0 -150 -3 -226 -28z"/>
<path d="M1478 2350 c-117 -14 -127 -19 -202 -91 -56 -53 -81 -85 -107 -141
-31 -67 -34 -80 -32 -157 3 -100 21 -161 73 -239 37 -55 120 -122 152 -122 7
0 30 -9 51 -20 57 -31 138 -27 233 11 101 40 135 69 187 154 l42 69 0 146 -1
145 -33 58 c-38 66 -104 127 -176 162 -62 30 -102 35 -187 25z m203 -109 c97
-74 143 -169 142 -291 -2 -147 -93 -278 -218 -311 -60 -17 -182 -6 -231 19
-49 25 -122 104 -131 141 -3 14 -11 32 -17 40 -19 24 -13 220 7 256 9 17 17
35 17 40 0 16 94 107 131 128 28 15 52 17 145 15 109 -3 111 -4 155 -37z"/>
<path d="M1470 2149 c-17 -6 -36 -29 -55 -66 -39 -78 -40 -175 -2 -249 33 -65
51 -79 102 -78 86 2 128 66 128 197 -1 107 -27 171 -78 193 -39 16 -59 17 -95
3z m67 -127 c17 -17 17 -109 0 -142 -18 -35 -48 -32 -59 5 -11 38 -2 153 13
172 11 12 14 12 23 -4 5 -10 16 -24 23 -31z"/>
<path d="M2743 2340 c-119 -25 -222 -110 -264 -221 -34 -90 -34 -237 -1 -325
30 -79 94 -151 168 -188 50 -25 72 -30 161 -34 122 -5 170 8 227 65 42 42 51
68 43 120 -14 82 -47 64 -47 -25 0 -48 -2 -53 -27 -63 -16 -7 -39 -17 -52 -23
-13 -6 -71 -11 -130 -10 -102 0 -108 1 -161 34 -100 60 -150 159 -150 292 1
119 57 223 153 286 40 26 48 27 162 27 95 0 126 -4 150 -18 17 -9 36 -17 43
-17 8 0 12 -19 13 -57 0 -32 4 -67 8 -78 8 -19 8 -19 18 0 24 45 25 85 5 129
-12 23 -31 49 -44 57 -66 43 -195 65 -275 49z"/>
<path d="M2130 2272 c0 -22 4 -32 12 -30 18 6 20 22 3 43 -14 19 -14 18 -15
-13z"/>
<path d="M2748 2127 c-16 -13 -28 -27 -28 -32 0 -4 -7 -16 -16 -26 -13 -14
-16 -40 -16 -118 0 -109 10 -133 70 -173 33 -22 122 -24 160 -4 35 18 104 93
93 101 -9 5 -48 -6 -88 -26 -33 -17 -106 -3 -134 27 -34 36 -33 122 1 159 20
22 32 25 84 25 34 -1 72 -7 86 -15 87 -50 54 24 -40 87 -39 27 -137 24 -172
-5z"/>
<path d="M574 1053 c-32 -12 -48 -28 -73 -69 -27 -45 -31 -62 -31 -121 0 -59
4 -76 29 -114 31 -49 98 -89 150 -89 64 0 151 63 151 110 0 10 4 21 10 25 13
8 50 -31 50 -53 0 -45 86 -92 168 -92 75 0 112 25 112 75 0 44 -14 51 -46 26
-26 -21 -68 -26 -111 -15 -35 10 -63 64 -63 121 0 44 4 54 37 86 42 43 83 48
123 17 38 -30 60 -26 60 11 0 17 -4 39 -10 49 -12 23 -72 34 -144 25 -45 -6
-61 -14 -90 -43 -20 -19 -36 -41 -36 -48 0 -7 -6 -14 -12 -17 -20 -7 -48 12
-48 31 0 47 -80 103 -147 101 -21 0 -56 -8 -79 -16z m151 -103 c16 -18 20 -35
19 -88 0 -60 -3 -67 -32 -93 -43 -39 -82 -38 -116 1 -35 42 -44 110 -20 162
32 72 93 79 149 18z"/>
<path d="M1296 1041 l-99 -6 0 -182 c0 -101 2 -185 4 -187 2 -3 55 -6 116 -7
111 -2 143 5 143 35 -1 32 -20 40 -97 41 l-78 0 -3 48 c-3 53 -8 50 88 51 61
1 65 3 68 25 5 36 -12 45 -86 46 l-67 0 0 35 0 35 75 1 c102 1 100 0 100 33 0
29 -17 43 -48 39 -9 -1 -61 -4 -116 -7z"/>
<path d="M1606 1034 c-9 -8 -18 -27 -22 -42 -3 -15 -7 -34 -9 -42 -4 -20 -25
-78 -42 -117 -7 -17 -13 -39 -13 -50 -1 -10 -7 -29 -15 -43 -18 -31 -19 -79
-2 -85 6 -3 26 -1 42 3 24 7 31 15 35 43 l5 34 65 0 65 0 11 -35 c8 -25 19
-36 40 -42 16 -4 35 -6 42 -3 16 6 15 50 -2 83 -7 15 -24 61 -36 102 -13 41
-27 79 -31 85 -5 5 -9 20 -9 35 0 14 -9 40 -20 58 -16 26 -26 32 -54 32 -19 0
-42 -7 -50 -16z m78 -159 c23 -60 17 -75 -34 -75 -35 0 -40 3 -40 23 0 29 38
109 49 103 4 -3 16 -26 25 -51z"/>
<path d="M1884 1044 c-11 -5 -10 -365 1 -384 8 -13 41 -13 66 1 21 11 21 39
-3 177 -12 73 -4 92 31 70 11 -7 21 -20 21 -28 0 -14 7 -29 43 -97 9 -15 25
-50 37 -76 22 -47 23 -48 62 -45 l40 3 2 188 c1 170 -1 188 -16 193 -27 8 -58
-5 -58 -24 1 -9 5 -50 9 -91 9 -76 6 -101 -11 -101 -13 0 -47 41 -48 57 0 27
-73 153 -88 154 -10 0 -30 2 -47 4 -16 2 -35 1 -41 -1z"/>
<path d="M2244 1035 c-3 -6 -3 -94 -2 -195 l3 -185 35 -3 c50 -5 60 14 53 104
l-6 74 77 0 77 0 -3 33 -3 32 -67 -3 c-64 -3 -69 -2 -79 21 -8 18 -8 30 1 47
11 20 18 22 77 18 54 -2 68 0 77 15 8 12 8 22 0 35 -10 14 -27 17 -124 17 -68
0 -114 -4 -116 -10z"/>
<path d="M2547 1043 c-4 -3 -7 -76 -7 -162 1 -174 3 -181 73 -213 46 -22 104
-23 155 -3 61 25 69 49 73 225 l4 155 -45 0 -45 0 -1 -130 c0 -167 0 -162 -30
-181 -24 -16 -28 -16 -60 -1 l-35 17 2 139 c0 77 -2 145 -6 150 -7 12 -68 15
-78 4z"/>
<path d="M2934 1038 c-10 -16 -7 -369 3 -379 6 -6 26 -9 44 -7 l34 3 0 75 c0
58 3 75 15 77 22 4 31 -5 79 -77 46 -71 57 -78 114 -79 53 -1 49 23 -18 96
-30 34 -55 65 -55 70 0 5 11 20 25 33 36 33 49 82 35 122 -20 55 -43 65 -164
70 -59 2 -110 0 -112 -4z m162 -66 c54 -36 21 -112 -49 -112 -27 0 -37 16 -37
60 0 47 10 60 44 60 17 0 36 -4 42 -8z"/>
<path d="M3311 1041 c-11 -7 -13 -45 -12 -187 2 -113 6 -183 13 -192 6 -7 25
-12 42 -10 l31 3 0 125 c0 74 4 126 10 129 6 2 40 -55 76 -125 63 -122 68
-129 99 -132 18 -2 37 1 42 6 11 11 14 364 3 381 -9 15 -60 14 -73 -2 -12 -14
-8 -63 10 -134 13 -54 6 -78 -20 -64 -18 10 -92 145 -92 169 0 32 -93 56 -129
33z"/>
<path d="M3689 1039 c-19 -12 -2 -57 24 -61 21 -3 22 -7 25 -120 l3 -117 -28
-13 c-30 -14 -42 -43 -24 -61 13 -13 182 -16 199 -4 20 15 14 55 -10 68 -13 7
-24 12 -25 11 -19 -13 -23 11 -21 115 3 116 3 117 28 123 18 4 26 14 28 33 2
15 0 27 -5 28 -58 5 -185 4 -194 -2z"/>
<path d="M3923 1032 c-32 -33 -5 -62 55 -59 22 0 44 -2 48 -6 8 -7 6 -157 -2
-237 -7 -67 6 -83 63 -78 l38 3 0 150 c0 83 4 156 8 163 6 9 19 11 38 7 18 -4
36 -2 44 5 18 15 20 60 3 61 -7 1 -73 2 -147 3 -100 1 -138 -2 -148 -12z"/>
<path d="M4281 1037 c-7 -9 -10 -65 -8 -163 2 -134 4 -152 22 -170 50 -53 130
-68 205 -38 67 27 78 57 81 219 2 78 -1 146 -5 153 -9 15 -73 16 -82 0 -4 -6
-8 -72 -8 -146 -1 -135 -1 -135 -28 -155 -23 -17 -31 -19 -53 -9 -40 19 -48
53 -41 188 6 107 5 122 -9 128 -27 10 -62 7 -74 -7z"/>
<path d="M4669 1039 c-8 -4 -9 -40 -4 -110 3 -58 2 -135 -4 -173 -12 -85 -4
-106 43 -106 50 0 61 19 48 83 -10 53 -3 77 23 77 6 0 29 -26 50 -57 63 -95
73 -103 121 -103 24 0 45 3 48 8 7 12 -15 46 -66 102 -27 28 -48 55 -48 60 0
5 11 18 26 29 51 40 54 132 5 169 -22 16 -47 20 -129 24 -57 2 -108 1 -113 -3z
m171 -79 c26 -26 25 -54 -2 -80 -32 -29 -76 -27 -88 6 -9 22 -5 65 7 87 8 15
64 6 83 -13z"/>
<path d="M5034 1041 c-2 -2 -4 -87 -4 -188 0 -138 3 -185 13 -187 6 -3 65 -7
130 -10 115 -6 118 -6 126 16 5 13 5 32 1 43 -7 18 -17 20 -81 20 -41 0 -80 4
-86 8 -7 5 -13 23 -13 42 0 19 6 37 13 42 6 4 44 8 82 8 66 0 70 1 73 24 6 37
-13 46 -91 46 -68 0 -72 1 -75 23 -6 42 14 53 97 50 l76 -3 0 35 0 35 -128 0
c-71 0 -131 -2 -133 -4z"/>
</g>
</svg>
